<svg width="536" height="72" viewBox="0 0 536 72" fill="none" xmlns="http://www.w3.org/2000/svg">
<path d="M32.312 2.88H37.688V72H32.312V2.88ZM0.248 -5.72205e-06H69.752V4.8H0.248V-5.72205e-06ZM80.312 72V-5.72205e-06H85.688V69.6L83.288 67.2H115.544C121.112 67.2 125.56 65.76 128.888 62.88C132.216 59.936 133.88 56.064 133.88 51.264C133.88 46.464 132.216 42.624 128.888 39.744C125.56 36.8 121.112 35.328 115.544 35.328H82.616V30.528H115.448C120.184 30.528 124.344 31.424 127.928 33.216C131.576 34.944 134.392 37.376 136.376 40.512C138.424 43.584 139.448 47.168 139.448 51.264C139.448 55.296 138.424 58.88 136.376 62.016C134.392 65.152 131.576 67.616 127.928 69.408C124.344 71.136 120.184 72 115.448 72H80.312Z" fill="#565656"/>
<path d="M256.586 -5.72205e-06V72H235.274V8.256L239.69 8.736L213.674 72H191.402L165.29 8.928L169.706 8.352V72H148.49V-5.72205e-06H182.954L206.666 60.192H198.506L222.026 -5.72205e-06H256.586ZM284.511 59.04V41.184H333.855V59.04H284.511ZM324.351 -5.72205e-06L356.607 72H332.703L306.591 9.696H312.639L286.431 72H262.623L294.783 -5.72205e-06H324.351ZM356.213 29.856H382.325V47.136H356.213V29.856ZM407.108 9.696H429.476V72H407.108V9.696ZM380.42 -5.72205e-06H456.164V19.872H380.42V-5.72205e-06ZM464.334 72V-5.72205e-06H486.702V64.512L476.622 54.528H503.982C506.798 54.528 509.006 53.824 510.606 52.416C512.206 50.944 513.006 48.96 513.006 46.464C513.006 43.904 512.206 41.92 510.606 40.512C509.006 39.104 506.798 38.4 503.982 38.4H474.702V20.928H505.422C511.758 20.928 517.166 21.984 521.646 24.096C526.126 26.208 529.55 29.184 531.918 33.024C534.35 36.864 535.566 41.344 535.566 46.464C535.566 51.648 534.35 56.16 531.918 60C529.55 63.776 526.126 66.72 521.646 68.832C517.166 70.944 511.758 72 505.422 72H464.334Z" fill="url(#paint0_linear_185_71)"/>
<defs>
<linearGradient id="paint0_linear_185_71" x1="158.932" y1="35.5" x2="568" y2="35.5" gradientUnits="userSpaceOnUse">
<stop stop-color="#FF9570"/>
<stop offset="1" stop-color="#B1B1B1"/>
</linearGradient>
</defs>
</svg>
