<svg width="0" height="0" class="hidden">
  <symbol fill="none" xmlns="http://www.w3.org/2000/svg" viewBox="0 0 16 16" id="arrow-up">
    <path fill-rule="evenodd" clip-rule="evenodd" d="M16 12L15.3611 12.6389L8 5.27788L0.638937 12.6389L5.60168e-07 12L8 4.00001L16 12Z" fill="currentColor"></path>
  </symbol>
  <symbol fill="none" xmlns="http://www.w3.org/2000/svg" viewBox="0 0 16 16" id="baseline-manage-accounts">
    <path d="M6.45485 7.54575C8.23731 7.54575 9.68228 6.10078 9.68228 4.31831C9.68228 2.53585 8.23731 1.09088 6.45485 1.09088C4.67239 1.09088 3.22742 2.53585 3.22742 4.31831C3.22742 6.10078 4.67239 7.54575 6.45485 7.54575Z" fill="currentColor"></path>
    <path d="M6.99546 8.36875C6.81795 8.36068 6.64044 8.35261 6.45487 8.35261C4.50227 8.35261 2.67877 8.8932 1.12153 9.82109C0.411498 10.2407 0 11.0314 0 11.8624V14.0006H7.47151C6.90161 13.1877 6.55733 12.2382 6.47371 11.2489C6.39009 10.2596 6.57011 9.26583 6.99546 8.36875ZM15.1286 10.7732C15.1286 10.5957 15.1044 10.4343 15.0802 10.2649L16 9.44994L15.1931 8.05407L14.0232 8.44943C13.765 8.23158 13.4745 8.06214 13.1518 7.94111L12.9097 6.73889H11.296L11.054 7.94111C10.7312 8.06214 10.4407 8.23158 10.1826 8.44943L9.01261 8.05407L8.20575 9.44994L9.12557 10.2649C9.10136 10.4343 9.07716 10.5957 9.07716 10.7732C9.07716 10.9507 9.10136 11.1121 9.12557 11.2815L8.20575 12.0964L9.01261 13.4923L10.1826 13.0969C10.4407 13.3148 10.7312 13.4842 11.054 13.6053L11.296 14.8075H12.9097L13.1518 13.6053C13.4745 13.4842 13.765 13.3148 14.0232 13.0969L15.1931 13.4923L16 12.0964L15.0802 11.2815C15.1044 11.1121 15.1286 10.9507 15.1286 10.7732ZM12.1029 12.3869C11.2153 12.3869 10.4892 11.6607 10.4892 10.7732C10.4892 9.88564 11.2153 9.15947 12.1029 9.15947C12.9904 9.15947 13.7166 9.88564 13.7166 10.7732C13.7166 11.6607 12.9904 12.3869 12.1029 12.3869Z" fill="currentColor"></path>
  </symbol>
  <symbol fill="none" xmlns="http://www.w3.org/2000/svg" viewBox="0 0 16 16" id="burning-passion">
    <g clip-path="url(#clip0_2003_50)">
      <path d="M0 0V0.0915667C2.1636 1.80696 3.20854 3.99147 3.01083 6.12588C2.65385 4.27425 1.60514 2.59787 3.36457e-05 1.44968V2.2418C1.85978 3.76265 2.7743 6.09009 2.45651 8.4781C2.44311 8.5566 2.43093 8.63511 2.42069 8.71375C2.41783 8.73102 2.41531 8.74809 2.41228 8.76532H2.4144C2.1938 10.5764 2.79144 12.4201 4.08391 14.018C4.29953 14.3907 4.5546 14.752 4.84768 15.0994C2.53842 13.0586 1.32075 10.6643 1.12358 8.20252C0.7495 10.9967 1.63224 13.6969 4.17645 15.9527H5.67767C5.67878 15.9536 5.67969 15.9548 5.68084 15.9558H10.073C10.0741 15.9548 10.075 15.9536 10.0761 15.9526H11.5447C14.089 13.6969 14.9717 10.9967 14.5977 8.20246C14.4041 10.6187 13.2277 12.97 11.0009 14.9858C11.3226 14.5902 11.5959 14.1772 11.8182 13.7508C12.9662 12.2164 13.4879 10.4761 13.2795 8.76529C13.2794 8.76461 13.2796 8.76387 13.2795 8.76317C13.2659 8.65174 13.2489 8.54078 13.229 8.42969C12.9138 5.93026 13.9463 3.503 16 2.00403V1.2414C14.2242 2.38844 13.0641 4.15326 12.6831 6.11746C12.4861 3.95595 13.5618 1.74381 15.7843 0.0199965L15.7685 0H14.8238C12.3982 2.16606 11.4626 5.03852 12.3831 7.67756C12.4793 7.953 12.5543 8.2354 12.6073 8.5223C12.6074 8.52375 12.6081 8.52509 12.6083 8.52651C12.6231 8.64214 12.6397 8.75798 12.6598 8.87372H12.6608C12.7384 9.5259 12.6985 10.1831 12.5462 10.8315C12.5447 9.87624 12.318 8.90759 11.8583 7.96792C10.5097 5.2121 11.1591 2.19703 13.6225 3.36457e-05H12.5779C10.8898 1.56956 10.3451 3.08233 10.6442 5.0865C9.92081 3.09475 9.9906 1.59956 11.3407 3.36457e-05H4.44893C5.799 1.59956 5.86879 3.09479 5.14537 5.0865C5.44448 3.0823 4.90077 1.56959 3.21281 3.36457e-05H2.13138C4.59473 2.19703 5.24415 5.2121 3.89559 7.96795C3.39406 8.99296 3.17114 10.0523 3.21389 11.0913C3.00699 10.3592 2.94404 9.61312 3.0319 8.87372C3.0521 8.75805 3.06971 8.64211 3.08452 8.52654C3.13762 8.23821 3.21287 7.9544 3.3096 7.67763C4.23018 5.03856 3.29458 2.16612 0.868941 6.73557e-05H0V0ZM7.88584 0.662781C8.43794 0.662781 8.79559 0.870826 9.05467 1.22137C9.31364 1.57192 9.45753 2.08742 9.45753 2.66893C9.45753 3.29724 9.22571 3.96703 8.92001 4.33531L8.57916 4.74669L9.10409 4.84559C9.52563 4.92481 9.83527 5.14096 10.0952 5.48521C10.355 5.82943 10.5521 6.30528 10.6905 6.85491C10.9438 7.85955 10.9981 9.09426 11.0061 10.1992H10.2214L10.194 7.82592L9.56495 7.83326L9.5975 10.7431L9.3366 14.5009C10.9207 13.0307 11.7601 11.3263 11.9004 9.57535C12.1768 11.6402 11.525 13.6355 9.64487 15.3025H9.28076V15.3099H8.17196V10.6062H7.54287V15.3098H6.48979V15.3024H6.16476C4.28455 13.6354 3.63173 11.6402 3.90818 9.57528C4.04721 11.311 4.873 13.0015 6.43088 14.4629L6.19206 11.0072L6.27942 7.83851L5.6503 7.82067L5.5851 10.1992H4.76453C4.77261 9.09415 4.82799 7.85948 5.08118 6.85484C5.21974 6.30524 5.41681 5.82936 5.6767 5.48511C5.93652 5.1409 6.24613 4.92474 6.66764 4.84549L7.1926 4.74662L6.85175 4.33525C6.54597 3.96696 6.31413 3.29721 6.31413 2.66887C6.31413 2.08735 6.45808 1.57185 6.71709 1.2213C6.9761 0.87086 7.33382 0.662714 7.88591 0.662714L7.88584 0.662781Z" fill="currentColor"></path>
    </g>
    <defs>
      <clipPath id="clip0_2003_50">
        <rect width="16" height="16" fill="white"></rect>
      </clipPath>
    </defs>
  </symbol>
  <symbol fill="none" xmlns="http://www.w3.org/2000/svg" viewBox="0 0 16 16" id="chakram">
    <g clip-path="url(#clip0_2003_52)">
      <path d="M8 0C3.57806 0 0 3.57806 0 8C0 12.4219 3.57806 16 8 16C12.4219 16 16 12.4219 16 8C16 3.57806 12.4219 0 8 0ZM9.05316 0.831055C10.1333 1.10278 10.5857 1.37485 11.1595 1.97266C10.6802 2.31527 10.0557 2.42397 9.38734 2.4665C10.3257 2.70143 11.173 3.16962 11.8616 3.80422C12.1418 3.91899 12.3983 3.97637 12.584 3.90211C12.0439 3.57131 11.8447 2.80506 11.9797 2.34532C12.6751 3.12236 12.9992 3.63207 13.8127 3.67257C14.3831 4.62785 14.5114 5.14093 14.4945 5.97131C13.9105 5.87342 13.3907 5.50886 12.8878 5.06329C13.3705 5.85992 13.6608 6.78819 13.7013 7.77721C13.816 8.05063 13.9544 8.27004 14.1367 8.3443C13.9916 7.72658 14.3899 7.04473 14.8118 6.81519C14.7511 7.85485 14.6194 8.44557 15.1662 9.04979C14.8962 10.13 14.6228 10.5823 14.0253 11.1561C13.6844 10.6768 13.5764 10.0557 13.5325 9.39072C13.2962 10.3325 12.8236 11.1831 12.1823 11.8751C12.0743 12.1485 12.0203 12.3983 12.0945 12.5806C12.4287 12.0405 13.1916 11.8413 13.6506 11.9764C12.8743 12.6684 12.3646 12.9924 12.3241 13.8093C11.3688 14.3797 10.8557 14.508 10.0253 14.4911C10.1232 13.9139 10.4844 13.3975 10.9232 12.8945C10.1266 13.3772 9.19831 13.6641 8.20928 13.7013C7.94262 13.8127 7.72996 13.9544 7.6557 14.13C8.27342 13.9848 8.95527 14.3865 9.18481 14.8051C8.14515 14.7477 7.55443 14.616 6.95021 15.1629C5.87004 14.8928 5.41772 14.6194 4.84388 14.0219C5.31983 13.681 5.93418 13.573 6.59578 13.5291C5.65738 13.2928 4.81013 12.8203 4.12152 12.1789C3.85148 12.0709 3.59831 12.0169 3.41941 12.0878C3.95949 12.4219 4.15865 13.1882 4.02363 13.6473C3.32827 12.8709 3.00422 12.3612 2.19038 12.3207C1.61755 11.3654 1.49097 10.8523 1.50785 10.0253C2.08675 10.1198 2.60152 10.481 3.10211 10.9198C2.6238 10.1232 2.33586 9.19831 2.29975 8.21266C2.18532 7.94262 2.04557 7.72658 1.86734 7.65232C2.01249 8.27004 1.6108 8.9519 1.19224 9.18143C1.24962 8.14177 1.38127 7.55105 0.83443 6.94684C1.10447 5.86667 1.37789 5.41435 1.97536 4.84051C2.31831 5.31646 2.42599 5.93755 2.46852 6.60253C2.70233 5.6796 3.1639 4.83005 3.81097 4.13165C3.92574 3.85485 3.97975 3.59831 3.90548 3.41603C3.57131 3.95612 2.80506 4.1519 2.34835 4.02025C3.12574 3.32489 3.63544 3.00084 3.67595 2.18667C4.57046 1.64962 5.07679 1.50481 5.81941 1.50278C5.87004 1.50245 5.92067 1.50312 5.97131 1.50413C5.87679 2.08844 5.50886 2.60624 5.06329 3.11224C5.86329 2.6292 6.78819 2.33823 7.77721 2.30008C8.05401 2.18498 8.27342 2.04354 8.34768 1.86262C7.72996 2.0081 7.0481 1.60844 6.81857 1.18785C7.85823 1.24557 8.44895 1.37755 9.05316 0.831055ZM9.48861 1.3043C9.30295 1.3043 9.15105 1.45553 9.15105 1.64186C9.15105 1.82819 9.30295 1.97941 9.48861 1.97941C9.67426 1.97941 9.82616 1.82819 9.82616 1.64186C9.82616 1.45553 9.67426 1.3043 9.48861 1.3043ZM4.55696 2.11443C4.4692 2.11443 4.38481 2.14751 4.3173 2.213C4.18565 2.3443 4.18565 2.55899 4.3173 2.6903C4.44894 2.82194 4.66498 2.82194 4.79662 2.6903C4.92489 2.55899 4.92489 2.3443 4.79662 2.213C4.72911 2.14751 4.64473 2.11443 4.55696 2.11443ZM13.546 4.21941C13.4616 4.21941 13.3738 4.25316 13.3063 4.3173C13.1747 4.44894 13.1781 4.6616 13.3063 4.79325C13.438 4.92489 13.654 4.92489 13.7857 4.79325C13.9173 4.6616 13.9173 4.44557 13.7857 4.3173C13.7215 4.25316 13.6338 4.21941 13.546 4.21941ZM1.64456 6.17384C1.4589 6.17384 1.307 6.32574 1.307 6.51139C1.307 6.69705 1.4589 6.84894 1.64456 6.84894C1.83021 6.84894 1.98211 6.69705 1.98211 6.51139C1.98211 6.32574 1.83021 6.17384 1.64456 6.17384ZM14.3561 9.14768C14.1705 9.14768 14.0186 9.29958 14.0186 9.48523C14.0186 9.67089 14.1705 9.82278 14.3561 9.82278C14.5418 9.82278 14.6937 9.67089 14.6937 9.48523C14.6937 9.29958 14.5418 9.14768 14.3561 9.14768ZM2.45536 11.1021C2.36894 11.1021 2.28219 11.1359 2.21671 11.2C2.0854 11.3316 2.0854 11.5477 2.21671 11.6793C2.34802 11.811 2.5627 11.811 2.69401 11.6793C2.82532 11.5477 2.82532 11.3316 2.69401 11.2C2.62852 11.1359 2.54177 11.1021 2.45536 11.1021ZM11.4397 13.2051C11.3553 13.2051 11.2709 13.2354 11.2034 13.303C11.0717 13.4346 11.0717 13.6506 11.2034 13.7823C11.335 13.9139 11.5477 13.9139 11.6793 13.7823C11.811 13.6506 11.811 13.4346 11.6793 13.303C11.6118 13.2354 11.5274 13.2051 11.4397 13.2051ZM6.51477 14.0152C6.32911 14.0152 6.17721 14.1671 6.17721 14.3527C6.17721 14.5384 6.32911 14.6903 6.51477 14.6903C6.70042 14.6903 6.85232 14.5384 6.85232 14.3527C6.85232 14.1671 6.70042 14.0152 6.51477 14.0152Z" fill="currentColor"></path>
    </g>
    <defs>
      <clipPath id="clip0_2003_52">
        <rect width="16" height="16" fill="white"></rect>
      </clipPath>
    </defs>
  </symbol>
  <symbol fill="none" xmlns="http://www.w3.org/2000/svg" viewBox="0 0 16 16" id="instagram">
    <path fill-rule="evenodd" clip-rule="evenodd" d="M3.8919 8.00002C3.8919 5.73114 5.73114 3.89189 8.00002 3.89189C10.2689 3.89189 12.1081 5.73114 12.1081 8.00002C12.1081 10.2689 10.2689 12.1081 8.00002 12.1081C5.73114 12.1081 3.8919 10.2689 3.8919 8.00002ZM8.00001 10.6667C6.52723 10.6667 5.33333 9.47277 5.33333 8.00002C5.33333 6.52723 6.52723 5.33333 8.00001 5.33333C9.47276 5.33333 10.6667 6.52723 10.6667 8.00002C10.6667 9.47277 9.47276 10.6667 8.00001 10.6667Z" fill="currentColor"></path>
    <path fill-rule="evenodd" clip-rule="evenodd" d="M3.8919 8.00002C3.8919 5.73114 5.73114 3.89189 8.00002 3.89189C10.2689 3.89189 12.1081 5.73114 12.1081 8.00002C12.1081 10.2689 10.2689 12.1081 8.00002 12.1081C5.73114 12.1081 3.8919 10.2689 3.8919 8.00002ZM8.00001 10.6667C6.52723 10.6667 5.33333 9.47277 5.33333 8.00002C5.33333 6.52723 6.52723 5.33333 8.00001 5.33333C9.47276 5.33333 10.6667 6.52723 10.6667 8.00002C10.6667 9.47277 9.47276 10.6667 8.00001 10.6667Z" fill="currentColor"></path>
    <path d="M12.2704 4.68957C12.8006 4.68957 13.2304 4.25979 13.2304 3.72959C13.2304 3.19939 12.8006 2.76957 12.2704 2.76957C11.7402 2.76957 11.3104 3.19939 11.3104 3.72959C11.3104 4.25979 11.7402 4.68957 12.2704 4.68957Z" fill="currentColor"></path>
    <path d="M12.2704 4.68957C12.8006 4.68957 13.2304 4.25979 13.2304 3.72959C13.2304 3.19939 12.8006 2.76957 12.2704 2.76957C11.7402 2.76957 11.3104 3.19939 11.3104 3.72959C11.3104 4.25979 11.7402 4.68957 12.2704 4.68957Z" fill="currentColor"></path>
    <path fill-rule="evenodd" clip-rule="evenodd" d="M8.00002 0C5.82733 0 5.5549 0.00920926 4.70161 0.0481422C3.8501 0.0869798 3.26855 0.222229 2.7597 0.420006C2.23363 0.624419 1.78748 0.897966 1.34271 1.34271C0.897966 1.78748 0.624419 2.23363 0.420006 2.7597C0.222229 3.26855 0.0869798 3.8501 0.0481422 4.70161C0.00920926 5.5549 0 5.82733 0 8.00002C0 10.1727 0.00920926 10.4451 0.0481422 11.2984C0.0869798 12.1499 0.222229 12.7314 0.420006 13.2403C0.624419 13.7664 0.897966 14.2125 1.34271 14.6573C1.78748 15.102 2.23363 15.3756 2.7597 15.58C3.26855 15.7778 3.8501 15.913 4.70161 15.9519C5.5549 15.9908 5.82733 16 8.00002 16C10.1727 16 10.4451 15.9908 11.2984 15.9519C12.1499 15.913 12.7314 15.7778 13.2403 15.58C13.7664 15.3756 14.2125 15.102 14.6573 14.6573C15.102 14.2125 15.3756 13.7664 15.58 13.2403C15.7778 12.7314 15.913 12.1499 15.9519 11.2984C15.9908 10.4451 16 10.1727 16 8.00002C16 5.82733 15.9908 5.5549 15.9519 4.70161C15.913 3.8501 15.7778 3.26855 15.58 2.7597C15.3756 2.23363 15.102 1.78748 14.6573 1.34271C14.2125 0.897966 13.7664 0.624419 13.2403 0.420006C12.7314 0.222229 12.1499 0.0869798 11.2984 0.0481422C10.4451 0.00920926 10.1727 0 8.00002 0ZM8.00002 1.44144C10.1361 1.44144 10.3891 1.4496 11.2327 1.48809C12.0127 1.52366 12.4363 1.65398 12.7182 1.76354C13.0916 1.90867 13.3581 2.08202 13.638 2.36198C13.918 2.64191 14.0913 2.90841 14.2365 3.28183C14.346 3.56373 14.4763 3.98732 14.5119 4.76731C14.5504 5.61088 14.5586 5.86391 14.5586 8.00002C14.5586 10.1361 14.5504 10.3891 14.5119 11.2327C14.4763 12.0127 14.346 12.4363 14.2365 12.7182C14.0913 13.0916 13.918 13.3581 13.638 13.638C13.3581 13.918 13.0916 14.0913 12.7182 14.2365C12.4363 14.346 12.0127 14.4763 11.2327 14.5119C10.3892 14.5504 10.1362 14.5586 8.00002 14.5586C5.86376 14.5586 5.61079 14.5504 4.76732 14.5119C3.98732 14.4763 3.56373 14.346 3.28183 14.2365C2.90841 14.0913 2.64191 13.918 2.36198 13.638C2.08206 13.3581 1.90867 13.0916 1.76354 12.7182C1.65398 12.4363 1.52366 12.0127 1.48809 11.2327C1.4496 10.3891 1.44144 10.1361 1.44144 8.00002C1.44144 5.86391 1.4496 5.61088 1.48809 4.76731C1.52366 3.98732 1.65398 3.56373 1.76354 3.28183C1.90867 2.90841 2.08202 2.64191 2.36198 2.36198C2.64191 2.08202 2.90841 1.90867 3.28183 1.76354C3.56373 1.65398 3.98732 1.52366 4.76732 1.48809C5.61088 1.4496 5.86392 1.44144 8.00002 1.44144Z" fill="currentColor"></path>
    <path fill-rule="evenodd" clip-rule="evenodd" d="M8.00002 0C5.82733 0 5.5549 0.00920926 4.70161 0.0481422C3.8501 0.0869798 3.26855 0.222229 2.7597 0.420006C2.23363 0.624419 1.78748 0.897966 1.34271 1.34271C0.897966 1.78748 0.624419 2.23363 0.420006 2.7597C0.222229 3.26855 0.0869798 3.8501 0.0481422 4.70161C0.00920926 5.5549 0 5.82733 0 8.00002C0 10.1727 0.00920926 10.4451 0.0481422 11.2984C0.0869798 12.1499 0.222229 12.7314 0.420006 13.2403C0.624419 13.7664 0.897966 14.2125 1.34271 14.6573C1.78748 15.102 2.23363 15.3756 2.7597 15.58C3.26855 15.7778 3.8501 15.913 4.70161 15.9519C5.5549 15.9908 5.82733 16 8.00002 16C10.1727 16 10.4451 15.9908 11.2984 15.9519C12.1499 15.913 12.7314 15.7778 13.2403 15.58C13.7664 15.3756 14.2125 15.102 14.6573 14.6573C15.102 14.2125 15.3756 13.7664 15.58 13.2403C15.7778 12.7314 15.913 12.1499 15.9519 11.2984C15.9908 10.4451 16 10.1727 16 8.00002C16 5.82733 15.9908 5.5549 15.9519 4.70161C15.913 3.8501 15.7778 3.26855 15.58 2.7597C15.3756 2.23363 15.102 1.78748 14.6573 1.34271C14.2125 0.897966 13.7664 0.624419 13.2403 0.420006C12.7314 0.222229 12.1499 0.0869798 11.2984 0.0481422C10.4451 0.00920926 10.1727 0 8.00002 0ZM8.00002 1.44144C10.1361 1.44144 10.3891 1.4496 11.2327 1.48809C12.0127 1.52366 12.4363 1.65398 12.7182 1.76354C13.0916 1.90867 13.3581 2.08202 13.638 2.36198C13.918 2.64191 14.0913 2.90841 14.2365 3.28183C14.346 3.56373 14.4763 3.98732 14.5119 4.76731C14.5504 5.61088 14.5586 5.86391 14.5586 8.00002C14.5586 10.1361 14.5504 10.3891 14.5119 11.2327C14.4763 12.0127 14.346 12.4363 14.2365 12.7182C14.0913 13.0916 13.918 13.3581 13.638 13.638C13.3581 13.918 13.0916 14.0913 12.7182 14.2365C12.4363 14.346 12.0127 14.4763 11.2327 14.5119C10.3892 14.5504 10.1362 14.5586 8.00002 14.5586C5.86376 14.5586 5.61079 14.5504 4.76732 14.5119C3.98732 14.4763 3.56373 14.346 3.28183 14.2365C2.90841 14.0913 2.64191 13.918 2.36198 13.638C2.08206 13.3581 1.90867 13.0916 1.76354 12.7182C1.65398 12.4363 1.52366 12.0127 1.48809 11.2327C1.4496 10.3891 1.44144 10.1361 1.44144 8.00002C1.44144 5.86391 1.4496 5.61088 1.48809 4.76731C1.52366 3.98732 1.65398 3.56373 1.76354 3.28183C1.90867 2.90841 2.08202 2.64191 2.36198 2.36198C2.64191 2.08202 2.90841 1.90867 3.28183 1.76354C3.56373 1.65398 3.98732 1.52366 4.76732 1.48809C5.61088 1.4496 5.86392 1.44144 8.00002 1.44144Z" fill="currentColor"></path>
  </symbol>
  <symbol fill="none" xmlns="http://www.w3.org/2000/svg" viewBox="0 0 16 16" id="meditation-timer-and-log">
    <g clip-path="url(#clip0_2003_37)">
      <path fill-rule="evenodd" clip-rule="evenodd" d="M9.90474 7.05152C8.966 7.05152 8.20499 7.81253 8.20499 8.75127C8.20499 9.69002 8.966 10.451 9.90474 10.451C10.8435 10.451 11.6045 9.69002 11.6045 8.75127C11.6045 7.81253 10.8435 7.05152 9.90474 7.05152ZM7.76055 8.75127C7.76055 7.56707 8.72054 6.60708 9.90474 6.60708C11.0889 6.60708 12.0489 7.56707 12.0489 8.75127C12.0489 9.93548 11.0889 10.8955 9.90474 10.8955C8.72054 10.8955 7.76055 9.93548 7.76055 8.75127Z" fill="currentColor"></path>
      <path d="M2.83503 4.097L1.55712 3.59429L0 8.75128L1.33336 8.73429C1.33658 7.59936 1.66217 5.81929 2.66165 4.34114C2.71726 4.25889 2.77503 4.17745 2.83503 4.097Z" fill="currentColor"></path>
      <path d="M8.06122 0.363647C4.82285 0.363647 2.77197 1.79761 1.55712 3.59429L2.83503 4.097C3.83165 2.76077 5.44494 1.69698 8.06122 1.69698C11.322 1.69698 12.9074 2.98599 13.7267 4.42421C14.5831 5.92739 14.6665 7.705 14.6667 8.75139C14.6666 10.6626 13.0924 13.1418 9.90509 13.1418C8.11642 13.1418 6.9841 12.6612 6.29303 11.9429C5.6388 11.263 5.28787 10.2746 5.24825 8.99827C4.77671 8.97101 4.32745 8.94331 3.91259 8.9166C3.93983 10.4556 4.35195 11.8486 5.33222 12.8674C6.35226 13.9275 7.88358 14.4751 9.90509 14.4751C13.9328 14.4751 16 11.2903 16 8.75118C15.9998 7.67332 15.9256 5.59041 14.8853 3.76421C13.8079 1.873 11.7574 0.363647 8.06122 0.363647Z" fill="currentColor"></path>
      <path d="M1.55712 3.59429C0.36736 5.35384 0 7.42382 0 8.75128L1.55712 3.59429Z" fill="currentColor"></path>
      <path d="M3.72845 14.5805C2.29275 12.958 1.44868 10.8974 1.33336 8.73429L0 8.75128C0 8.76272 0.000294262 8.77415 0.000882467 8.78557C0.128148 11.2565 1.0903 13.6111 2.72991 15.4641C2.9739 15.7399 3.39522 15.7656 3.67096 15.5216C3.9467 15.2776 3.97244 14.8563 3.72845 14.5805Z" fill="currentColor"></path>
      <path d="M5.52272 5.18737C4.57127 5.89962 3.91113 7.05634 3.91113 8.75128C3.91113 8.80657 3.91162 8.86168 3.91259 8.9166C4.32745 8.94331 4.77671 8.97101 5.24825 8.99827C5.24573 8.91711 5.24447 8.83477 5.24447 8.75128C5.24447 7.44542 5.73069 6.69723 6.32176 6.25476C6.5843 6.05822 6.88095 5.91245 7.18848 5.80958L5.55186 5.16576C5.54213 5.17291 5.53241 5.18012 5.52272 5.18737Z" fill="currentColor"></path>
      <path d="M11.1852 5.26722C10.3861 4.536 9.36597 4.27478 8.45517 4.27478C7.57631 4.27478 6.46632 4.49402 5.55186 5.16576L7.18848 5.80958C7.61022 5.66851 8.05242 5.60811 8.45517 5.60811C9.12902 5.60811 9.79464 5.80206 10.2851 6.25089C10.5451 6.4888 10.7814 6.82164 10.9427 7.28644L12.4388 7.87498C12.2893 6.72857 11.84 5.86635 11.1852 5.26722Z" fill="currentColor"></path>
      <path d="M12.3209 9.19877C12.4281 9.08047 12.4934 8.9235 12.4934 8.75128C12.4934 8.44257 12.4748 8.15056 12.4388 7.87498L10.9427 7.28644C11.0776 7.67518 11.1601 8.15624 11.1601 8.75128C11.1601 8.93 11.2304 9.0923 11.3449 9.21201C11.6879 9.2115 12.0151 9.2073 12.3209 9.19877Z" fill="currentColor"></path>
    </g>
    <defs>
      <clipPath id="clip0_2003_37">
        <rect width="16" height="16" fill="white"></rect>
      </clipPath>
    </defs>
  </symbol>
  <symbol fill="none" xmlns="http://www.w3.org/2000/svg" viewBox="0 0 16 16" id="meditation">
    <path d="M8 0.727295C8.98667 0.727295 9.77778 1.51841 9.77778 2.50507C9.77778 3.49174 8.98667 4.28285 8 4.28285C7.01333 4.28285 6.22222 3.49174 6.22222 2.50507C6.22222 1.51841 7.02222 0.727295 8 0.727295ZM16 11.394V9.61618C14.0089 9.61618 12.3022 8.76285 11.0222 7.23396L9.83111 5.81174C9.66573 5.61127 9.45801 5.44991 9.22287 5.33926C8.98772 5.2286 8.73099 5.17139 8.47111 5.17174H7.55556C7.01333 5.17174 6.51556 5.40285 6.17778 5.81174L4.98667 7.23396C3.69778 8.76285 1.99111 9.61618 0 9.61618V11.394C2.46222 11.394 4.61333 10.354 6.22222 8.50507V10.5051L2.77333 11.8828C2.17778 12.1228 1.77778 12.7273 1.77778 13.3584C1.77778 14.2384 2.48889 14.9495 3.36889 14.9495H5.33333V14.5051C5.33333 13.9157 5.56746 13.3505 5.98421 12.9337C6.40095 12.517 6.96619 12.2829 7.55556 12.2829H10.2222C10.4711 12.2829 10.6667 12.4784 10.6667 12.7273C10.6667 12.9762 10.4711 13.1717 10.2222 13.1717H7.55556C6.81778 13.1717 6.22222 13.7673 6.22222 14.5051V14.9495H12.6311C13.5111 14.9495 14.2222 14.2384 14.2222 13.3584C14.2222 12.7273 13.8222 12.1228 13.2267 11.8828L9.77778 10.5051V8.50507C11.3867 10.354 13.5378 11.394 16 11.394Z" fill="currentColor"></path>
  </symbol>
  <symbol fill="none" xmlns="http://www.w3.org/2000/svg" viewBox="0 0 16 16" id="mental-health-fill">
    <g clip-path="url(#clip0_2003_41)">
      <path d="M7.12794 3.22372e-08C8.68199 0.000101355 10.1829 0.565505 11.3508 1.59075C12.5187 2.61599 13.2737 4.03106 13.4751 5.572L15.2751 8.4032C15.3935 8.5896 15.3695 8.8672 15.0951 8.9856L13.5279 9.656V12C13.5279 12.4243 13.3594 12.8313 13.0593 13.1314C12.7593 13.4314 12.3523 13.6 11.9279 13.6H10.3287L10.3279 16H3.12794V13.0448C3.12794 12.1008 2.77914 11.2072 2.13194 10.4008C1.3781 9.45957 0.905524 8.3245 0.768655 7.1264C0.631786 5.92829 0.836196 4.71589 1.35833 3.62889C1.88047 2.54189 2.69909 1.62453 3.71987 0.982491C4.74064 0.340457 5.92204 -0.000120981 7.12794 3.22372e-08ZM6.70394 4.6104C6.43995 4.35532 6.08633 4.21414 5.71926 4.21726C5.35218 4.22037 5.00101 4.36754 4.74139 4.62706C4.48177 4.88658 4.33446 5.23768 4.3312 5.60476C4.32793 5.97183 4.46897 6.32551 4.72394 6.5896L7.12794 8.9944L9.53194 6.5896C9.66563 6.46043 9.77225 6.30592 9.84559 6.1351C9.91893 5.96428 9.95751 5.78057 9.95909 5.59468C9.96067 5.40878 9.92521 5.22444 9.85478 5.0524C9.78435 4.88036 9.68036 4.72407 9.54889 4.59264C9.41741 4.46122 9.26108 4.3573 9.08901 4.28694C8.91694 4.21658 8.73258 4.1812 8.54669 4.18285C8.3608 4.1845 8.1771 4.22316 8.00631 4.29657C7.83552 4.36997 7.68106 4.47666 7.55194 4.6104L7.12794 5.0344L6.70394 4.6104Z" fill="currentColor"></path>
    </g>
    <defs>
      <clipPath id="clip0_2003_41">
        <rect width="16" height="16" fill="white"></rect>
      </clipPath>
    </defs>
  </symbol>
  <symbol fill="none" xmlns="http://www.w3.org/2000/svg" viewBox="0 0 16 16" id="people-sharp">
    <g clip-path="url(#clip0_2003_54)">
      <path d="M4.5333 7.86665C5.85878 7.86665 6.9333 6.79213 6.9333 5.46665C6.9333 4.14117 5.85878 3.06665 4.5333 3.06665C3.20782 3.06665 2.1333 4.14117 2.1333 5.46665C2.1333 6.79213 3.20782 7.86665 4.5333 7.86665Z" fill="currentColor"></path>
      <path d="M7.26667 9.19999C6.328 8.72333 5.292 8.53333 4.53333 8.53333C3.04733 8.53333 0 9.44466 0 11.2667V12.6667H5V12.131C5 11.4977 5.26667 10.8627 5.73333 10.3333C6.10567 9.91066 6.627 9.51833 7.26667 9.19999Z" fill="currentColor"></path>
      <path d="M10.8 8.93335C9.06431 8.93335 5.59998 10.0053 5.59998 12.1333V13.7333H16V12.1333C16 10.0053 12.5356 8.93335 10.8 8.93335Z" fill="currentColor"></path>
      <path d="M10.8 7.86667C12.4201 7.86667 13.7334 6.55337 13.7334 4.93333C13.7334 3.3133 12.4201 2 10.8 2C9.18 2 7.8667 3.3133 7.8667 4.93333C7.8667 6.55337 9.18 7.86667 10.8 7.86667Z" fill="currentColor"></path>
    </g>
    <defs>
      <clipPath id="clip0_2003_54">
        <rect width="16" height="16" fill="white"></rect>
      </clipPath>
    </defs>
  </symbol>
  <symbol fill="none" xmlns="http://www.w3.org/2000/svg" viewBox="0 0 16 16" id="route-outline">
    <g clip-path="url(#clip0_2003_46)">
      <path d="M5.33333 16C4.35556 16 3.51852 15.6519 2.82222 14.9556C2.12593 14.2593 1.77778 13.4222 1.77778 12.4444V5.17778C1.25926 4.98518 0.833481 4.66311 0.500444 4.21156C0.167407 3.76 0.000592593 3.24504 0 2.66667C0 1.92593 0.259259 1.2963 0.777778 0.777778C1.2963 0.259259 1.92593 0 2.66667 0C3.40741 0 4.03704 0.259259 4.55556 0.777778C5.07407 1.2963 5.33333 1.92593 5.33333 2.66667C5.33333 3.24444 5.16681 3.75941 4.83378 4.21156C4.50074 4.6637 4.07467 4.98578 3.55556 5.17778V12.4444C3.55556 12.9333 3.72978 13.352 4.07822 13.7004C4.42667 14.0489 4.84504 14.2228 5.33333 14.2222C5.82163 14.2216 6.2403 14.0477 6.58933 13.7004C6.93837 13.3532 7.1123 12.9345 7.11111 12.4444V3.55556C7.11111 2.57778 7.45926 1.74074 8.15556 1.04444C8.85185 0.348148 9.68889 0 10.6667 0C11.6444 0 12.4815 0.348148 13.1778 1.04444C13.8741 1.74074 14.2222 2.57778 14.2222 3.55556V10.8222C14.7407 11.0148 15.1668 11.3372 15.5004 11.7893C15.8341 12.2415 16.0006 12.7561 16 13.3333C16 14.0741 15.7407 14.7037 15.2222 15.2222C14.7037 15.7407 14.0741 16 13.3333 16C12.5926 16 11.963 15.7407 11.4444 15.2222C10.9259 14.7037 10.6667 14.0741 10.6667 13.3333C10.6667 12.7556 10.8335 12.237 11.1671 11.7778C11.5007 11.3185 11.9265 11 12.4444 10.8222V3.55556C12.4444 3.06667 12.2705 2.6483 11.9227 2.30044C11.5748 1.95259 11.1561 1.77837 10.6667 1.77778C10.1772 1.77719 9.75881 1.95141 9.41155 2.30044C9.0643 2.64948 8.89007 3.06785 8.88889 3.55556V12.4444C8.88889 13.4222 8.54074 14.2593 7.84444 14.9556C7.14815 15.6519 6.31111 16 5.33333 16ZM2.66667 3.55556C2.91852 3.55556 3.12978 3.47022 3.30044 3.29956C3.47111 3.12889 3.55615 2.91793 3.55556 2.66667C3.55496 2.41541 3.46963 2.20444 3.29956 2.03378C3.12948 1.86311 2.91852 1.77778 2.66667 1.77778C2.41481 1.77778 2.20385 1.86311 2.03378 2.03378C1.8637 2.20444 1.77837 2.41541 1.77778 2.66667C1.77719 2.91793 1.86252 3.12918 2.03378 3.30044C2.20504 3.4717 2.416 3.55674 2.66667 3.55556ZM13.3333 14.2222C13.5852 14.2222 13.7964 14.1369 13.9671 13.9662C14.1378 13.7956 14.2228 13.5846 14.2222 13.3333C14.2216 13.0821 14.1363 12.8711 13.9662 12.7004C13.7961 12.5298 13.5852 12.4444 13.3333 12.4444C13.0815 12.4444 12.8705 12.5298 12.7004 12.7004C12.5304 12.8711 12.445 13.0821 12.4444 13.3333C12.4439 13.5846 12.5292 13.7959 12.7004 13.9671C12.8717 14.1384 13.0827 14.2234 13.3333 14.2222Z" fill="currentColor"></path>
    </g>
    <defs>
      <clipPath id="clip0_2003_46">
        <rect width="16" height="16" fill="white"></rect>
      </clipPath>
    </defs>
  </symbol>
  <symbol fill="none" xmlns="http://www.w3.org/2000/svg" viewBox="0 0 16 16" id="skill-level-advanced">
    <g clip-path="url(#clip0_2003_33)">
      <path d="M16 14.5859C16 15.0768 15.602 15.4748 15.1111 15.4748H12.3175C11.8265 15.4748 11.4286 15.0768 11.4286 14.5859V1.25254C11.4286 0.761617 11.8265 0.363647 12.3175 0.363647H15.1111C15.602 0.363647 16 0.761617 16 1.25254V14.5859ZM10.2857 14.5859C10.2857 15.0768 9.88774 15.4748 9.39683 15.4748H6.60318C6.11226 15.4748 5.71429 15.0768 5.71429 14.5859V5.90211C5.71429 5.41119 6.11225 5.01322 6.60317 5.01322H9.39682C9.88774 5.01322 10.2857 5.41119 10.2857 5.90211V14.5859ZM4.57143 14.5859C4.57143 15.0768 4.17346 15.4748 3.68254 15.4748H0.88889C0.39797 15.4748 0 15.0768 0 14.5859V9.38929C0 8.89837 0.397969 8.5004 0.888889 8.5004H3.68254C4.17346 8.5004 4.57143 8.89837 4.57143 9.38929V14.5859Z" fill="currentColor"></path>
    </g>
    <defs>
      <clipPath id="clip0_2003_33">
        <rect width="16" height="16" fill="white"></rect>
      </clipPath>
    </defs>
  </symbol>
  <symbol fill="none" xmlns="http://www.w3.org/2000/svg" viewBox="0 0 16 16" id="yin-yang-fill">
    <g clip-path="url(#clip0_2003_31)">
      <path d="M8.92308 4.30769C8.92308 4.49026 8.86894 4.66873 8.76751 4.82052C8.66608 4.97232 8.52192 5.09064 8.35325 5.1605C8.18458 5.23037 7.99898 5.24865 7.81992 5.21303C7.64086 5.17741 7.47638 5.0895 7.34729 4.96041C7.21819 4.83131 7.13028 4.66683 7.09466 4.48777C7.05904 4.30872 7.07732 4.12312 7.14719 3.95445C7.21706 3.78577 7.33537 3.64161 7.48717 3.54018C7.63897 3.43875 7.81743 3.38461 8 3.38461C8.24482 3.38461 8.4796 3.48187 8.65271 3.65498C8.82583 3.82809 8.92308 4.06288 8.92308 4.30769ZM16 8C16 9.58225 15.5308 11.129 14.6518 12.4446C13.7727 13.7602 12.5233 14.7855 11.0615 15.391C9.59966 15.9965 7.99113 16.155 6.43928 15.8463C4.88743 15.5376 3.46197 14.7757 2.34315 13.6569C1.22433 12.538 0.462403 11.1126 0.153721 9.56072C-0.15496 8.00887 0.00346628 6.40034 0.608967 4.93853C1.21447 3.47672 2.23985 2.22729 3.55544 1.34824C4.87103 0.469192 6.41775 0 8 0C10.121 0.00223986 12.1546 0.845814 13.6544 2.34562C15.1542 3.84542 15.9978 5.87895 16 8ZM8.92308 11.6923C8.92308 11.5097 8.86894 11.3313 8.76751 11.1795C8.66608 11.0277 8.52192 10.9094 8.35325 10.8395C8.18458 10.7696 7.99898 10.7513 7.81992 10.787C7.64086 10.8226 7.47638 10.9105 7.34729 11.0396C7.21819 11.1687 7.13028 11.3332 7.09466 11.5122C7.05904 11.6913 7.07732 11.8769 7.14719 12.0456C7.21706 12.2142 7.33537 12.3584 7.48717 12.4598C7.63897 12.5612 7.81743 12.6154 8 12.6154C8.24482 12.6154 8.4796 12.5181 8.65271 12.345C8.82583 12.1719 8.92308 11.9371 8.92308 11.6923ZM11.3846 4.61538C11.3836 3.71804 11.0267 2.85774 10.3922 2.22322C9.75764 1.58871 8.89734 1.23179 8 1.23077C6.53302 1.23168 5.10603 1.70912 3.93387 2.59121C2.76171 3.4733 1.90783 4.71231 1.50078 6.12169C1.09372 7.53106 1.15552 9.03454 1.67688 10.4057C2.19824 11.777 3.15094 12.9417 4.39154 13.7246C4.1002 13.1149 3.96807 12.4414 4.00746 11.7668C4.04685 11.0922 4.25649 10.4387 4.61681 9.86702C4.97713 9.29539 5.47639 8.82436 6.068 8.49788C6.65961 8.1714 7.32429 8.00011 8 8C8.89734 7.99898 9.75764 7.64206 10.3922 7.00754C11.0267 6.37303 11.3836 5.51273 11.3846 4.61538Z" fill="currentColor"></path>
    </g>
    <defs>
      <clipPath id="clip0_2003_31">
        <rect width="16" height="16" fill="white"></rect>
      </clipPath>
    </defs>
  </symbol>
  <symbol fill="none" xmlns="http://www.w3.org/2000/svg" viewBox="0 0 16 16" id="telegram">
    <path fill-rule="evenodd" clip-rule="evenodd" d="M16 8C16 12.4183 12.4183 16 8 16C3.58172 16 0 12.4183 0 8C0 3.58172 3.58172 0 8 0C12.4183 0 16 3.58172 16 8ZM8.28677 5.90595C7.50865 6.2296 5.95351 6.89947 3.62134 7.91555C3.24264 8.06615 3.04425 8.21348 3.02619 8.35754C2.99567 8.601 3.30056 8.69687 3.71573 8.82742C3.7722 8.84518 3.83072 8.86358 3.89071 8.88308C4.29917 9.01585 4.84863 9.17119 5.13427 9.17736C5.39338 9.18296 5.68257 9.07614 6.00184 8.8569C8.18085 7.386 9.30567 6.64254 9.37629 6.62651C9.42611 6.61521 9.49515 6.60099 9.54192 6.64257C9.5887 6.68414 9.5841 6.76288 9.57915 6.78401C9.54895 6.91276 8.35217 8.0254 7.73283 8.60119C7.53975 8.78069 7.4028 8.90802 7.3748 8.9371C7.31208 9.00224 7.24817 9.06385 7.18674 9.12307C6.80726 9.48889 6.52269 9.76322 7.20249 10.2112C7.52917 10.4265 7.79058 10.6045 8.05137 10.7821C8.33619 10.9761 8.62027 11.1695 8.98782 11.4105C9.08147 11.4718 9.1709 11.5356 9.25801 11.5977C9.58946 11.834 9.88725 12.0463 10.2551 12.0124C10.4689 11.9928 10.6897 11.7917 10.8019 11.1922C11.0669 9.77543 11.5878 6.70564 11.7082 5.44065C11.7188 5.32982 11.7055 5.18798 11.6948 5.12572C11.6842 5.06345 11.6619 4.97474 11.581 4.90907C11.4851 4.83129 11.3372 4.81489 11.271 4.81606C10.9701 4.82136 10.5085 4.98188 8.28677 5.90595Z" fill="currentColor"></path>
  </symbol>
  <symbol fill="none" xmlns="http://www.w3.org/2000/svg" viewBox="0 0 16 16" id="think-peaks">
    <g clip-path="url(#clip0_2003_48)">
      <path d="M13.3681 12.7346L16 8.19594L15.033 8.18688L13.3681 11.0575L7.1373 0.363647L0 12.6741L0.96695 12.6832L7.1373 2.04372L13.3681 12.7346ZM2.63192 11.402H3.60189L7.14939 5.28301L13.2956 15.8318L14.2776 15.8348L7.15241 3.60897L2.63192 11.402Z" fill="currentColor"></path>
    </g>
    <defs>
      <clipPath id="clip0_2003_48">
        <rect width="16" height="16" fill="white"></rect>
      </clipPath>
    </defs>
  </symbol>
  <symbol fill="none" xmlns="http://www.w3.org/2000/svg" viewBox="0 0 16 16" id="youtube">
    <path fill-rule="evenodd" clip-rule="evenodd" d="M14.2511 2.33426C14.9395 2.51825 15.4816 3.06048 15.6656 3.74876C16 4.99665 16 7.5999 16 7.5999C16 7.5999 16 10.2033 15.6656 11.451C15.4816 12.1393 14.9395 12.6817 14.2511 12.8655C13.0034 13.1999 7.99993 13.1999 7.99993 13.1999C7.99993 13.1999 2.99665 13.1999 1.74889 12.8655C1.06048 12.6817 0.518385 12.1393 0.334395 11.451C0 10.2033 0 7.5999 0 7.5999C0 7.5999 0 4.99665 0.334395 3.74876C0.518385 3.06048 1.06048 2.51825 1.74889 2.33426C2.99665 2 7.99993 2 7.99993 2C7.99993 2 13.0034 2 14.2511 2.33426ZM10.5568 7.60003L6.40006 9.99994V5.19987L10.5568 7.60003Z" fill="currentColor"></path>
  </symbol>
</svg>